<svg width="236" height="55" viewBox="0 0 236 55" fill="none" xmlns="http://www.w3.org/2000/svg">
<path d="M4.9043 0.5H231.096C233.252 0.500157 235 2.24929 235 4.40723V18.2832C235 18.6563 234.773 19.0224 234.398 19.2432C231.755 20.8001 229.979 23.6783 229.979 26.9717C229.979 30.265 231.755 33.1434 234.398 34.7002C234.773 34.9209 235 35.2862 235 35.6592V50.5928C235 52.7508 233.252 54.4998 231.096 54.5H4.9043C2.7483 54.4998 1.00007 52.7507 1 50.5928V36.7168C1.00004 36.3437 1.22662 35.9776 1.60156 35.7568C4.24526 34.1999 6.02148 31.3217 6.02148 28.0283C6.02134 24.735 4.24534 21.8566 1.60156 20.2998C1.22669 20.0791 1.00012 19.7138 1 19.3408V4.40723L1.00488 4.20605C1.10608 2.20788 2.70759 0.605938 4.7041 0.504883L4.9043 0.5Z" fill="url(#paint0_linear_931_7495)" stroke="url(#paint1_linear_931_7495)"/>
<path d="M24.5491 24.6349C23.7778 24.6349 23.4693 24.2933 23.3536 23.4964L22.8523 20.8779C22.7752 20.5364 22.9295 20.4226 23.238 20.4226C27.7884 20.3087 31.9146 19.4738 33.4185 17.159H24.819C23.855 17.159 23.5079 16.7795 23.5079 15.9067V14.5405C23.5079 13.8195 23.7007 13.6677 24.3948 13.6297L49.8077 13.5918C50.4247 13.5918 50.7332 13.8574 50.7332 14.5785L50.6946 16.2862C50.6946 17.0072 50.5018 17.159 49.8077 17.159H40.9382C40.8225 17.5764 40.6297 17.9559 40.4369 18.3354C43.9076 18.9046 48.6122 19.7395 51.8515 20.3467C52.507 20.4985 52.5842 20.7641 52.16 21.2195L50.0776 23.6482C49.422 24.3692 48.7665 24.521 47.9181 24.2174C44.7559 23.1549 40.8611 22.1303 37.699 21.3333C34.614 23.5344 29.8707 24.6349 24.5491 24.6349ZM30.5649 12.5292C29.6008 12.5292 29.2537 12.1497 29.2537 11.2769V9.94872C29.2537 9.22769 29.4465 9.0759 30.1407 9.0759L44.6788 9C45.2958 9 45.6043 9.30359 45.6043 9.98667V11.6564C45.6043 12.3774 45.4115 12.5292 44.7174 12.5292H30.5649ZM21.8111 30.2513C20.8471 30.2513 20.5 29.9097 20.5 29.1128V26.9877C20.5 26.2667 20.6928 26.1149 21.3098 26.1149H52.9698C53.5868 26.1149 53.8953 26.3805 53.8953 27.0256V29.3785C53.8953 30.0995 53.7025 30.2513 53.0855 30.2513H40.9768V31.959H49.1521C49.8848 31.959 50.039 32.1487 50.039 32.7559L49.9233 39.5867C49.9233 40.3077 49.7305 40.4595 49.1135 40.4595H31.6832V42.0913H50.3475C50.9645 42.0913 51.273 42.3569 51.273 43.0021V44.7856C51.273 45.3928 51.0031 45.6964 50.3475 45.6964H26.8628C25.1275 45.6964 24.7805 45.0892 24.7805 43.2677V38.0308C24.7805 37.3097 24.9733 37.158 25.5903 37.158H43.1363V35.5262H25.8217C24.8576 35.5262 24.5105 35.1846 24.5105 34.3877V32.8697C24.5105 32.1487 24.7033 31.9969 25.3203 31.9969H34.2283V30.2513H21.8111Z" fill="url(#paint2_linear_931_7495)"/>
<path d="M58.8093 30.2513C58.3466 30.2892 58.1152 30.1754 57.8453 29.7959L55.6858 26.8359C55.4158 26.4564 55.4929 26.3046 55.9171 26.1528C60.4675 24.6349 63.8225 19.36 63.8225 13.5918V12.9087L63.7454 12.3774C63.7454 11.7323 64.2081 11.5426 64.9022 11.5805L69.5683 11.8082C70.5324 11.9221 70.8409 12.3395 70.6481 13.2123L70.5324 14.1231V14.7303C70.5324 15.9446 70.301 17.1969 69.8768 18.4872C72.3449 20.7641 75.3142 23.6862 77.358 25.8492C77.7822 26.3426 77.7436 26.7221 77.2809 27.1015L74.0416 29.7579C73.3089 30.3651 72.7305 30.2133 72.1906 29.5303C70.7252 27.7087 68.9513 25.4697 67.3317 23.5723C64.9408 27.0636 61.6244 29.9097 58.8093 30.2513ZM81.8313 30.8964C81.2914 30.8964 80.9443 30.5549 80.9443 30.0236V21.4472H77.7436L76.3939 21.5231C75.6227 21.561 75.3142 21.0297 75.3142 20.2328V18.4113C75.3142 17.6903 75.5456 17.5385 76.2011 17.5385H80.9443V11.9979L80.9058 11.3149C80.8672 10.5179 81.2914 10.2523 81.947 10.2523H86.266C87.1915 10.3282 87.5386 10.7836 87.4229 11.9221V30.1754C87.4229 30.6687 87.1915 30.8964 86.6902 30.8964H81.8313ZM81.7542 46C81.2143 46 80.8672 45.6585 80.8672 45.1272V37.0062H63.2055C62.2414 37.0062 61.8944 36.6646 61.8944 35.8677V33.439C61.8944 32.7179 62.0872 32.5662 62.7042 32.5662L86.6131 32.6421C87.3457 32.6421 87.5 32.8318 87.5 33.439V45.0892C87.5 45.7344 87.1915 46 86.5745 46H81.7542Z" fill="url(#paint3_linear_931_7495)"/>
<path d="M112.523 42.8438C103.623 42.8438 96.917 36.1992 96.9375 27.4219C96.917 18.6445 103.603 12 112.482 12C117.568 12 121.773 14.2148 124.418 17.6191L119.66 21.1875C117.794 18.7881 115.436 17.7422 112.482 17.7422C106.925 17.7422 103.028 21.7412 103.049 27.4219C103.028 33.1025 106.945 37.1016 112.523 37.1016C116.769 37.1016 119.722 34.7842 120.522 31.1133H113.098V26.0684H126.428C126.612 27.0732 126.715 28.0781 126.715 29.0625C126.715 37.2451 120.727 42.8438 112.523 42.8438Z" fill="white"/>
<path d="M149.93 42.2695L147.715 35.748H136.272L134.016 42.2695H127.33L138.773 12.5742H145.172L156.615 42.2695H149.93ZM138.199 30.0879H145.787L142.055 19.3008H141.891L138.199 30.0879Z" fill="white"/>
<path d="M160.143 42.2695V12.5742H167.772L175.975 32.877H176.139L184.342 12.5742H191.971V42.2695H186.023V23.8945H185.9L178.559 42.2695H173.555L166.254 23.8945H166.09V42.2695H160.143Z" fill="white"/>
<path d="M197.262 42.2695V12.5742H216.416V18.2754H203.332V24.4277H215.268V29.6367H203.332V36.5684H216.744V42.2695H197.262Z" fill="white"/>
<defs>
<linearGradient id="paint0_linear_931_7495" x1="0.5" y1="27.5" x2="225.5" y2="27.5" gradientUnits="userSpaceOnUse">
<stop stop-color="#9100D5"/>
<stop offset="0.5" stop-color="#58009E"/>
<stop offset="1" stop-color="#9100D5"/>
</linearGradient>
<linearGradient id="paint1_linear_931_7495" x1="0.5" y1="27.5" x2="225.5" y2="27.5" gradientUnits="userSpaceOnUse">
<stop stop-color="white" stop-opacity="0.3"/>
<stop offset="0.5" stop-color="white" stop-opacity="0"/>
<stop offset="1" stop-color="white" stop-opacity="0.3"/>
</linearGradient>
<linearGradient id="paint2_linear_931_7495" x1="53.7451" y1="15.4133" x2="53.7451" y2="50.7056" gradientUnits="userSpaceOnUse">
<stop stop-color="white"/>
<stop offset="1" stop-color="white"/>
</linearGradient>
<linearGradient id="paint3_linear_931_7495" x1="53.7451" y1="15.4133" x2="53.7451" y2="50.7056" gradientUnits="userSpaceOnUse">
<stop stop-color="white"/>
<stop offset="1" stop-color="white"/>
</linearGradient>
</defs>
</svg>
