<svg width="171" height="71" viewBox="0 0 171 71" fill="none" xmlns="http://www.w3.org/2000/svg">
<path d="M23.6443 6.296C23.4523 6.296 23.3029 6.25333 23.1963 6.168C23.0896 6.072 23.0363 5.91733 23.0363 5.704V3.928C23.0363 3.71467 23.0896 3.56533 23.1963 3.48C23.3029 3.39467 23.4523 3.34667 23.6443 3.336H27.9003C28.7216 3.336 29.3829 3.39467 29.8843 3.512C30.3856 3.61867 30.7909 3.85333 31.1003 4.216C31.2923 4.44 31.4363 4.75467 31.5323 5.16C31.6283 5.56533 31.6763 6.008 31.6763 6.488C31.6869 6.95733 31.6389 7.42133 31.5323 7.88C31.4363 8.328 31.2869 8.712 31.0843 9.032C30.9029 9.32 30.6576 9.65067 30.3483 10.024C30.0389 10.3867 29.6976 10.7653 29.3243 11.16C28.9616 11.544 28.5936 11.9227 28.2203 12.296C27.8576 12.6693 27.5216 13.0107 27.2123 13.32C26.9136 13.6187 26.6789 13.8587 26.5083 14.04H31.1962C31.3883 14.04 31.5376 14.0933 31.6443 14.2C31.7616 14.296 31.8203 14.4187 31.8203 14.568V16.472C31.8203 16.6213 31.7616 16.7493 31.6443 16.856C31.5376 16.952 31.3883 17 31.1962 17H23.1803C22.8069 17 22.6203 16.8027 22.6203 16.408V14.072C22.6203 13.8267 22.6629 13.608 22.7483 13.416C22.8443 13.224 22.9616 13.0533 23.1003 12.904C23.5376 12.4347 24.0069 11.9547 24.5082 11.464C25.0203 10.9733 25.5323 10.4667 26.0443 9.944C26.5563 9.41067 27.0256 8.86133 27.4523 8.296C27.5589 8.14667 27.6709 7.98133 27.7883 7.8C27.9056 7.608 27.9963 7.41067 28.0603 7.208C28.1349 7.00533 28.1456 6.824 28.0923 6.664C28.0603 6.54667 27.9909 6.456 27.8843 6.392C27.7776 6.328 27.6123 6.296 27.3883 6.296H23.6443ZM38.9346 17.064V14.648C38.9346 14.5733 38.956 14.5147 38.9986 14.472C39.0413 14.4187 39.1 14.3813 39.1746 14.36C39.484 14.264 39.74 14.0613 39.9426 13.752C40.1453 13.4427 40.2946 12.9947 40.3906 12.408C40.4866 11.8107 40.5346 11.048 40.5346 10.12C40.5346 9.192 40.4866 8.44 40.3906 7.864C40.2946 7.288 40.1506 6.84533 39.9586 6.536C39.7666 6.216 39.5266 6.00267 39.2386 5.896C39.164 5.87467 39.1053 5.83733 39.0626 5.784C39.0306 5.73067 39.0146 5.66667 39.0146 5.592V3.176C39.0146 3.08 39.0413 3.00533 39.0946 2.952C39.1586 2.888 39.2386 2.86133 39.3346 2.872C40.284 2.94667 41.0786 3.18133 41.7186 3.576C42.3693 3.97067 42.8813 4.49333 43.2546 5.144C43.6386 5.79467 43.9106 6.54133 44.0706 7.384C44.2413 8.22667 44.3266 9.13867 44.3266 10.12C44.3266 11.0907 44.236 12.0027 44.0546 12.856C43.884 13.6987 43.6013 14.4453 43.2066 15.096C42.8226 15.7467 42.3053 16.2693 41.6546 16.664C41.004 17.0587 40.204 17.2933 39.2546 17.368C39.1586 17.3787 39.0786 17.352 39.0146 17.288C38.9613 17.2347 38.9346 17.16 38.9346 17.064ZM38.2946 14.648V17.064C38.2946 17.16 38.2626 17.2347 38.1986 17.288C38.1453 17.352 38.0706 17.3787 37.9746 17.368C37.0253 17.2933 36.2306 17.0587 35.5906 16.664C34.9506 16.2693 34.4386 15.7467 34.0546 15.096C33.6706 14.4453 33.3933 13.6987 33.2226 12.856C33.052 12.0027 32.9666 11.0907 32.9666 10.12C32.9666 9.14933 33.052 8.24267 33.2226 7.4C33.404 6.54667 33.692 5.79467 34.0866 5.144C34.4813 4.49333 35.004 3.97067 35.6546 3.576C36.3053 3.18133 37.1053 2.94667 38.0546 2.872C38.1506 2.86133 38.2253 2.888 38.2786 2.952C38.3426 3.00533 38.3746 3.08 38.3746 3.176V5.608C38.3746 5.68267 38.3533 5.74667 38.3106 5.8C38.268 5.85333 38.2093 5.89067 38.1346 5.912C37.836 6.008 37.58 6.21067 37.3666 6.52C37.164 6.82933 37.0093 7.27733 36.9026 7.864C36.8066 8.44 36.7586 9.192 36.7586 10.12C36.7586 11.048 36.8013 11.8053 36.8866 12.392C36.9826 12.9787 37.1266 13.4267 37.3186 13.736C37.5106 14.0453 37.756 14.2533 38.0546 14.36C38.1293 14.3813 38.188 14.4187 38.2306 14.472C38.2733 14.5147 38.2946 14.5733 38.2946 14.648ZM46.3786 6.296C46.1866 6.296 46.0373 6.25333 45.9306 6.168C45.824 6.072 45.7706 5.91733 45.7706 5.704V3.928C45.7706 3.71467 45.824 3.56533 45.9306 3.48C46.0373 3.39467 46.1866 3.34667 46.3786 3.336H50.6346C51.456 3.336 52.1173 3.39467 52.6186 3.512C53.12 3.61867 53.5253 3.85333 53.8346 4.216C54.0266 4.44 54.1706 4.75467 54.2666 5.16C54.3626 5.56533 54.4106 6.008 54.4106 6.488C54.4213 6.95733 54.3733 7.42133 54.2666 7.88C54.1706 8.328 54.0213 8.712 53.8186 9.032C53.6373 9.32 53.392 9.65067 53.0826 10.024C52.7733 10.3867 52.432 10.7653 52.0586 11.16C51.696 11.544 51.328 11.9227 50.9546 12.296C50.592 12.6693 50.256 13.0107 49.9466 13.32C49.648 13.6187 49.4133 13.8587 49.2426 14.04H53.9306C54.1226 14.04 54.272 14.0933 54.3786 14.2C54.496 14.296 54.5546 14.4187 54.5546 14.568V16.472C54.5546 16.6213 54.496 16.7493 54.3786 16.856C54.272 16.952 54.1226 17 53.9306 17H45.9146C45.5413 17 45.3546 16.8027 45.3546 16.408V14.072C45.3546 13.8267 45.3973 13.608 45.4826 13.416C45.5786 13.224 45.696 13.0533 45.8346 12.904C46.272 12.4347 46.7413 11.9547 47.2426 11.464C47.7546 10.9733 48.2666 10.4667 48.7786 9.944C49.2906 9.41067 49.76 8.86133 50.1866 8.296C50.2933 8.14667 50.4053 7.98133 50.5226 7.8C50.64 7.608 50.7306 7.41067 50.7946 7.208C50.8693 7.00533 50.88 6.824 50.8266 6.664C50.7946 6.54667 50.7253 6.456 50.6186 6.392C50.512 6.328 50.3466 6.296 50.1226 6.296H46.3786ZM59.845 14.04C60.325 14.04 60.6557 13.96 60.837 13.8C61.0183 13.64 61.109 13.4267 61.109 13.16V12.12C61.109 11.8107 61.0343 11.5973 60.885 11.48C60.7357 11.352 60.533 11.288 60.277 11.288H56.293C56.0797 11.288 55.925 11.2347 55.829 11.128C55.7437 11.0107 55.701 10.856 55.701 10.664V3.96C55.701 3.768 55.7437 3.61867 55.829 3.512C55.925 3.39467 56.0797 3.336 56.293 3.336H63.749C63.941 3.336 64.0903 3.38933 64.197 3.496C64.3143 3.592 64.373 3.71467 64.373 3.864V5.768C64.373 5.91733 64.3143 6.04533 64.197 6.152C64.0903 6.248 63.941 6.296 63.749 6.296H59.461V8.648L61.317 8.568C62.0103 8.568 62.6237 8.68 63.157 8.904C63.6903 9.128 64.1063 9.48533 64.405 9.976C64.7143 10.4667 64.869 11.112 64.869 11.912V13.176C64.869 14.1573 64.693 14.9307 64.341 15.496C63.9997 16.0507 63.4983 16.44 62.837 16.664C62.1863 16.888 61.397 17 60.469 17H56.053C55.861 17 55.7063 16.952 55.589 16.856C55.4823 16.7493 55.429 16.6213 55.429 16.472V14.568C55.429 14.4187 55.4823 14.296 55.589 14.2C55.7063 14.0933 55.861 14.04 56.053 14.04H59.845ZM77.2864 15.752C77.3824 15.752 77.457 15.784 77.5104 15.848C77.5744 15.9013 77.6064 15.976 77.6064 16.072V17.992C77.6064 18.088 77.5744 18.1627 77.5104 18.216C77.457 18.28 77.3824 18.312 77.2864 18.312C76.6997 18.3013 76.1184 18.264 75.5424 18.2C74.977 18.136 74.449 18.0293 73.9584 17.88C73.4677 17.7307 73.0357 17.528 72.6624 17.272C72.289 17.016 71.9957 16.696 71.7824 16.312C71.569 15.9173 71.4624 15.4427 71.4624 14.888C71.4624 14.1413 71.6437 13.544 72.0064 13.096C72.3797 12.6373 72.8757 12.2907 73.4944 12.056C74.1237 11.8213 74.8224 11.6667 75.5904 11.592C76.3584 11.5067 77.137 11.464 77.9264 11.464C78.7157 11.464 79.4944 11.5067 80.2624 11.592C81.0304 11.6667 81.7237 11.8213 82.3424 12.056C82.9717 12.2907 83.4677 12.6373 83.8304 13.096C84.2037 13.544 84.3904 14.1413 84.3904 14.888C84.3904 15.4427 84.2837 15.9173 84.0704 16.312C83.857 16.696 83.5637 17.016 83.1904 17.272C82.817 17.528 82.3797 17.7307 81.8784 17.88C81.3877 18.0293 80.8597 18.136 80.2944 18.2C79.729 18.264 79.153 18.3013 78.5664 18.312C78.4704 18.312 78.3904 18.28 78.3264 18.216C78.273 18.1627 78.2464 18.088 78.2464 17.992V16.072C78.2464 15.976 78.273 15.9013 78.3264 15.848C78.3904 15.784 78.4704 15.752 78.5664 15.752C78.961 15.7413 79.3024 15.7147 79.5904 15.672C79.8784 15.6293 80.1024 15.5493 80.2624 15.432C80.4224 15.304 80.5024 15.1227 80.5024 14.888C80.5024 14.6107 80.3957 14.4133 80.1824 14.296C79.969 14.1787 79.6704 14.104 79.2864 14.072C78.9024 14.04 78.449 14.024 77.9264 14.024C77.4144 14.024 76.961 14.04 76.5664 14.072C76.1824 14.104 75.8784 14.1787 75.6544 14.296C75.441 14.4133 75.3344 14.6107 75.3344 14.888C75.3344 15.1227 75.4144 15.304 75.5744 15.432C75.7344 15.5493 75.9584 15.6293 76.2464 15.672C76.545 15.7147 76.8917 15.7413 77.2864 15.752ZM76.7424 5.864C76.7424 6.472 76.9077 7.016 77.2384 7.496C77.5797 7.96533 78.0704 8.29067 78.7104 8.472C78.9344 8.536 79.0944 8.60533 79.1904 8.68C79.2864 8.744 79.3344 8.91467 79.3344 9.192V10.632C79.3344 10.8987 79.2597 11.0747 79.1104 11.16C78.9717 11.2453 78.801 11.2827 78.5984 11.272C78.1504 11.2293 77.681 11.1067 77.1904 10.904C76.6997 10.6907 76.2517 10.4347 75.8464 10.136C75.441 9.82667 75.137 9.512 74.9344 9.192C74.6464 9.68267 74.2837 10.1147 73.8464 10.488C73.4197 10.8507 72.977 11.144 72.5184 11.368C72.0597 11.592 71.6437 11.7413 71.2704 11.816C71.0677 11.8587 70.8757 11.8587 70.6944 11.816C70.513 11.7627 70.4224 11.5653 70.4224 11.224V9.624C70.4224 9.34667 70.4757 9.176 70.5824 9.112C70.689 9.048 70.8437 8.97333 71.0464 8.888C71.6224 8.64267 72.065 8.28 72.3744 7.8C72.6944 7.32 72.8544 6.69067 72.8544 5.912V5.608H71.0304C70.7744 5.608 70.609 5.56 70.5344 5.464C70.4597 5.35733 70.4224 5.22933 70.4224 5.08V3.416C70.4224 3.26667 70.4597 3.144 70.5344 3.048C70.609 2.94133 70.7744 2.888 71.0304 2.888H78.4704C78.7264 2.888 78.8917 2.94133 78.9664 3.048C79.041 3.144 79.0784 3.26667 79.0784 3.416V5.08C79.0784 5.22933 79.041 5.35733 78.9664 5.464C78.8917 5.56 78.7264 5.608 78.4704 5.608H76.7424V5.864ZM84.4544 10.856C84.4544 11.048 84.4064 11.2027 84.3104 11.32C84.225 11.4267 84.0757 11.48 83.8624 11.48H81.2384C81.025 11.48 80.8704 11.4267 80.7744 11.32C80.689 11.2027 80.6464 11.048 80.6464 10.856V8.44H79.4624C79.2064 8.44 79.025 8.392 78.9184 8.296C78.8224 8.18933 78.7744 8.06133 78.7744 7.912V6.088C78.7744 5.93867 78.8224 5.816 78.9184 5.72C79.025 5.61333 79.2064 5.56 79.4624 5.56H80.6464V3.432C80.6464 3.24 80.689 3.09067 80.7744 2.984C80.8704 2.86667 81.025 2.808 81.2384 2.808H83.8624C84.0757 2.808 84.225 2.86667 84.3104 2.984C84.4064 3.09067 84.4544 3.24 84.4544 3.432V10.856ZM99.7018 17.416C99.7018 17.608 99.6538 17.7573 99.5578 17.864C99.4724 17.9813 99.3231 18.04 99.1098 18.04H96.4058C96.1924 18.04 96.0378 17.9813 95.9418 17.864C95.8564 17.7573 95.8138 17.608 95.8138 17.416V3.432C95.8138 3.24 95.8564 3.09067 95.9418 2.984C96.0378 2.86667 96.1924 2.808 96.4058 2.808H99.1098C99.3231 2.808 99.4724 2.86667 99.5578 2.984C99.6538 3.09067 99.7018 3.24 99.7018 3.432V17.416ZM86.9658 16.92C86.9231 16.9307 86.8698 16.9413 86.8058 16.952C86.7418 16.952 86.6778 16.952 86.6138 16.952C86.4751 16.952 86.3471 16.9253 86.2298 16.872C86.1231 16.8187 86.0698 16.7067 86.0698 16.536V14.328C86.0698 14.1893 86.0911 14.0613 86.1338 13.944C86.1764 13.8267 86.2991 13.7467 86.5018 13.704C87.5364 13.4693 88.3684 13.096 88.9978 12.584C89.6271 12.0613 90.0858 11.4427 90.3738 10.728C90.6724 10.0027 90.8218 9.22933 90.8218 8.408V6.024H86.6938C86.5018 6.024 86.3471 5.976 86.2298 5.88C86.1231 5.77333 86.0698 5.64533 86.0698 5.496V3.512C86.0698 3.36267 86.1231 3.24 86.2298 3.144C86.3471 3.03733 86.5018 2.984 86.6938 2.984H93.4778C93.8404 2.984 94.0858 3.05867 94.2138 3.208C94.3524 3.35733 94.4218 3.58667 94.4218 3.896V8.248C94.4218 9.96533 94.1071 11.4267 93.4778 12.632C92.8484 13.8267 91.9738 14.776 90.8538 15.48C89.7338 16.184 88.4378 16.664 86.9658 16.92ZM106.805 15.32H114.709C114.901 15.32 115.05 15.368 115.157 15.464C115.274 15.5493 115.333 15.6987 115.333 15.912V17.448C115.333 17.6613 115.274 17.8107 115.157 17.896C115.05 17.992 114.901 18.04 114.709 18.04H103.909C103.525 18.04 103.258 17.9653 103.109 17.816C102.97 17.6667 102.901 17.4373 102.901 17.128V13.528C102.901 13.336 102.944 13.1867 103.029 13.08C103.125 12.9627 103.28 12.904 103.493 12.904H106.213C106.426 12.904 106.576 12.9627 106.661 13.08C106.757 13.1867 106.805 13.336 106.805 13.528V15.32ZM115.173 13.384C115.173 13.576 115.125 13.7307 115.029 13.848C114.944 13.9547 114.794 14.008 114.581 14.008H111.957C111.744 14.008 111.589 13.9547 111.493 13.848C111.408 13.7307 111.365 13.576 111.365 13.384V8.76H110.181C109.925 8.76 109.744 8.712 109.637 8.616C109.541 8.50933 109.493 8.38133 109.493 8.232V6.408C109.493 6.25867 109.541 6.136 109.637 6.04C109.744 5.93333 109.925 5.88 110.181 5.88H111.365V3.432C111.365 3.24 111.408 3.09067 111.493 2.984C111.589 2.86667 111.744 2.808 111.957 2.808H114.581C114.794 2.808 114.944 2.86667 115.029 2.984C115.125 3.09067 115.173 3.24 115.173 3.432V13.384ZM107.461 6.6C107.461 7.208 107.626 7.72533 107.957 8.152C108.298 8.568 108.789 8.86667 109.429 9.048C109.653 9.112 109.813 9.18133 109.909 9.256C110.005 9.32 110.053 9.49067 110.053 9.768V11.336C110.053 11.6027 109.978 11.7787 109.829 11.864C109.69 11.9493 109.52 11.9867 109.317 11.976C108.869 11.9333 108.4 11.8053 107.909 11.592C107.429 11.368 106.986 11.1067 106.581 10.808C106.176 10.5093 105.866 10.216 105.653 9.928C105.376 10.408 105.013 10.8347 104.565 11.208C104.117 11.5707 103.658 11.8693 103.189 12.104C102.73 12.328 102.33 12.4773 101.989 12.552C101.786 12.5947 101.594 12.5947 101.413 12.552C101.232 12.4987 101.141 12.3013 101.141 11.96V10.44C101.141 10.1627 101.194 9.98133 101.301 9.896C101.408 9.81067 101.562 9.72 101.765 9.624C102.341 9.34667 102.784 8.97867 103.093 8.52C103.413 8.05067 103.573 7.42667 103.573 6.648V5.688H101.749C101.493 5.688 101.328 5.64 101.253 5.544C101.178 5.43733 101.141 5.30933 101.141 5.16V3.496C101.141 3.34667 101.178 3.224 101.253 3.128C101.328 3.02133 101.493 2.968 101.749 2.968H109.189C109.445 2.968 109.61 3.02133 109.685 3.128C109.76 3.224 109.797 3.34667 109.797 3.496V5.16C109.797 5.30933 109.76 5.43733 109.685 5.544C109.61 5.64 109.445 5.688 109.189 5.688H107.461V6.6ZM134.285 14.536C134.477 14.536 134.626 14.584 134.733 14.68C134.85 14.7653 134.909 14.9147 134.909 15.128V16.664C134.909 16.8773 134.85 17.0267 134.733 17.112C134.626 17.208 134.477 17.256 134.285 17.256H121.325C121.133 17.256 120.978 17.208 120.861 17.112C120.754 17.0267 120.701 16.8773 120.701 16.664V15.128C120.701 14.9147 120.754 14.7653 120.861 14.68C120.978 14.584 121.133 14.536 121.325 14.536H125.917V13.656C125.917 13.464 125.96 13.3147 126.045 13.208C126.141 13.0907 126.296 13.032 126.509 13.032H129.197C129.41 13.032 129.56 13.0907 129.645 13.208C129.741 13.3147 129.789 13.464 129.789 13.656V14.536H134.285ZM133.629 5.544H125.309V6.408H133.469C133.661 6.408 133.81 6.456 133.917 6.552C134.034 6.63733 134.093 6.78667 134.093 7V8.376C134.093 8.58933 134.034 8.744 133.917 8.84C133.81 8.92533 133.661 8.968 133.469 8.968H125.309V9.832H133.629C133.821 9.832 133.97 9.88 134.077 9.976C134.194 10.0613 134.253 10.2107 134.253 10.424V11.96C134.253 12.1733 134.194 12.328 134.077 12.424C133.97 12.5093 133.821 12.552 133.629 12.552H122.429C122.045 12.552 121.778 12.4773 121.629 12.328C121.49 12.1787 121.421 11.9493 121.421 11.64V3.736C121.421 3.42667 121.49 3.19733 121.629 3.048C121.778 2.89867 122.045 2.824 122.429 2.824H133.629C133.821 2.824 133.97 2.872 134.077 2.968C134.194 3.05333 134.253 3.20267 134.253 3.416V4.952C134.253 5.16533 134.194 5.32 134.077 5.416C133.97 5.50133 133.821 5.544 133.629 5.544ZM137.228 17.08C137.122 17.1013 136.994 17.112 136.844 17.112C136.706 17.112 136.583 17.08 136.476 17.016C136.38 16.952 136.332 16.8453 136.332 16.696V14.52C136.332 14.3813 136.354 14.2533 136.396 14.136C136.439 14.0187 136.562 13.9387 136.764 13.896C137.97 13.64 138.903 13.2293 139.564 12.664C140.236 12.088 140.69 11.4213 140.924 10.664H137.036C136.844 10.664 136.69 10.616 136.572 10.52C136.466 10.4133 136.412 10.2853 136.412 10.136V8.392C136.412 8.24267 136.466 8.12 136.572 8.024C136.69 7.91733 136.844 7.864 137.036 7.864H141.164V5.944H136.956C136.764 5.944 136.61 5.896 136.492 5.8C136.386 5.69333 136.332 5.56533 136.332 5.416V3.512C136.332 3.36267 136.386 3.24 136.492 3.144C136.61 3.03733 136.764 2.984 136.956 2.984H143.82C144.183 2.984 144.428 3.05867 144.556 3.208C144.695 3.35733 144.764 3.58667 144.764 3.896V8.232C144.764 9.94933 144.455 11.432 143.836 12.68C143.228 13.9173 142.359 14.904 141.228 15.64C140.108 16.376 138.775 16.856 137.228 17.08ZM150.156 17.416C150.156 17.608 150.108 17.7573 150.012 17.864C149.927 17.9813 149.778 18.04 149.564 18.04H146.86C146.647 18.04 146.492 17.9813 146.396 17.864C146.311 17.7573 146.268 17.608 146.268 17.416V3.432C146.268 3.24 146.311 3.09067 146.396 2.984C146.492 2.86667 146.647 2.808 146.86 2.808H149.564C149.778 2.808 149.927 2.86667 150.012 2.984C150.108 3.09067 150.156 3.24 150.156 3.432V17.416Z" fill="white"/>
<path d="M0.457126 51.8211C0.15359 51.5779 0.00292969 51.1667 0.00292969 50.5918V47.0564C0.00292969 46.4816 0.15359 46.0725 0.457126 45.8271C0.758447 45.5839 1.17055 45.4601 1.689 45.4601H36.6799C37.1983 45.4601 37.6082 45.5817 37.9117 45.8271C38.2153 46.0725 38.3659 46.4816 38.3659 47.0564V50.5918C38.3659 51.1667 38.2153 51.5757 37.9117 51.8211C37.6104 52.0666 37.1983 52.1882 36.6799 52.1882H1.68678C1.16833 52.1882 0.758447 52.0666 0.454911 51.8211H0.457126ZM19.2697 27.573V38.6944C18.5497 39.6429 17.5482 40.4411 16.2676 41.0867C14.9848 41.7323 13.6045 42.2497 12.12 42.6388C10.6356 43.0258 9.21094 43.3154 7.84392 43.5011C6.47468 43.6891 5.33143 43.8107 4.40975 43.8681C3.66087 43.8969 2.96296 43.8681 2.31379 43.7819C1.66684 43.6957 1.34115 43.3795 1.34115 42.8334V39.0835C1.34115 38.3362 1.42756 37.7967 1.60037 37.4673C1.77319 37.1378 2.21852 36.9433 2.93859 36.8858C3.51465 36.8283 4.26352 36.7421 5.1852 36.6271C6.10689 36.5121 7.07732 36.3264 8.10092 36.0677C9.12231 35.809 10.0817 35.4354 10.9745 34.9467C11.8674 34.4581 12.5941 33.8191 13.1569 33.0276C13.7175 32.2382 13.9988 31.2543 13.9988 30.0737V29.2556C13.9988 28.7382 14.1207 28.3292 14.3666 28.0263C14.6103 27.7256 15.0224 27.573 15.5985 27.573H19.2697ZM19.3561 63.8269V70.2941C16.7063 70.2941 14.309 70.2145 12.1643 70.0576C10.0196 69.8984 8.17625 69.5623 6.6342 69.0449C5.09215 68.5275 3.91345 67.7161 3.09147 66.6084C2.26948 65.5029 1.8596 63.9994 1.8596 62.1024C1.8596 59.6879 2.51541 57.8992 3.82483 56.7362C5.13424 55.5732 7.09948 54.8104 9.72052 54.4523C12.3416 54.0941 15.5963 53.9128 19.4824 53.9128C23.3686 53.9128 26.661 54.0919 29.2665 54.4523C31.872 54.8126 33.8306 55.5732 35.1422 56.7362C36.4517 57.8992 37.1075 59.6901 37.1075 62.1024C37.1075 64.0281 36.6821 65.5449 35.8335 66.6504C34.9827 67.7559 33.7664 68.5696 32.1822 69.0869C30.5981 69.6043 28.7259 69.9338 26.5657 70.0775C24.4055 70.2212 22.0016 70.2919 19.3517 70.2919V63.8247C21.0799 63.8247 22.4757 63.7893 23.5414 63.7164C24.6071 63.6456 25.3848 63.4798 25.8744 63.2211C26.3641 62.9624 26.6078 62.5888 26.6078 62.1001C26.6078 61.6977 26.4571 61.3683 26.1536 61.1096C25.8523 60.8509 25.1964 60.6652 24.1884 60.5502C23.1803 60.4352 21.6116 60.3778 19.4802 60.3778C17.3488 60.3778 15.902 60.4352 14.8806 60.5502C13.857 60.6652 13.1813 60.8509 12.8512 61.1096C12.5188 61.3683 12.3549 61.6999 12.3549 62.1001C12.3549 62.6175 12.6141 62.9978 13.1325 63.2432C13.651 63.4887 14.4353 63.6456 15.4877 63.7164C16.5379 63.7893 17.8274 63.8247 19.3539 63.8247L19.3561 63.8269ZM19.2697 38.0488V27.573H22.8989C23.4749 27.573 23.8848 27.7233 24.1307 28.0263C24.3745 28.327 24.4985 28.7382 24.4985 29.2556V30.0737C24.4985 31.2521 24.7799 32.236 25.3405 33.0276C25.9032 33.8191 26.6299 34.4581 27.5228 34.9467C28.4157 35.4354 29.3728 35.809 30.3942 36.0677C31.4156 36.3264 32.3883 36.5143 33.3099 36.6271C34.2316 36.7421 34.9805 36.8283 35.5566 36.8858C36.3054 36.9433 36.7596 37.1378 36.9169 37.4673C37.0742 37.7989 37.154 38.3362 37.154 39.0835V42.8334C37.154 43.3795 36.8305 43.6957 36.1814 43.7819C35.5344 43.8681 34.8343 43.8969 34.0854 43.8681C33.1637 43.8107 32.0116 43.6891 30.6291 43.5011C29.2465 43.3154 27.8219 43.0258 26.353 42.6388C24.884 42.2519 23.5082 41.7345 22.2275 41.0867C20.9447 40.4411 19.9588 39.6429 19.2675 38.6944V38.0488H19.2697Z" fill="white"/>
<path d="M66.052 68.6116C66.052 69.1289 65.9301 69.538 65.6842 69.8409C65.4383 70.1416 65.0284 70.2941 64.4523 70.2941H56.762C56.186 70.2941 55.7761 70.1438 55.5301 69.8409C55.2842 69.5402 55.1624 69.1289 55.1624 68.6116V61.4125H43.1538C42.6354 61.4125 42.2255 61.2909 41.922 61.0455C41.6184 60.8023 41.4678 60.391 41.4678 59.8162V54.8149C41.4678 54.24 41.6184 53.831 41.922 53.5855C42.2233 53.3423 42.6354 53.2185 43.1538 53.2185H78.1447C78.6632 53.2185 79.073 53.3401 79.3766 53.5855C79.6801 53.831 79.8308 54.24 79.8308 54.8149V59.8162C79.8308 60.391 79.6801 60.8001 79.3766 61.0455C79.0753 61.2909 78.6632 61.4125 78.1447 61.4125H66.0498V68.6116H66.052ZM53.7843 39.9878V32.2294H67.5209V30.549C67.5209 30.0316 67.6428 29.6226 67.8887 29.3197C68.1324 29.019 68.5445 28.8664 69.1206 28.8664H76.0753C76.6514 28.8664 77.0613 29.0168 77.3072 29.3197C77.5509 29.6204 77.675 30.0316 77.675 30.549V48.6108C77.675 49.4443 77.48 50.0612 77.0923 50.4636C76.7046 50.866 75.9912 51.0672 74.9543 51.0672H56.7244C55.9467 51.0672 55.3064 50.8726 54.8012 50.4857C54.2961 50.0988 53.9593 49.6455 53.7865 49.1281V49.6875C53.7865 51.1822 52.9933 51.9295 51.4114 51.9295H46.3576C45.3207 51.9295 44.6073 51.7283 44.2195 51.3259C43.8318 50.9235 43.6368 50.3066 43.6368 49.4731V30.5468C43.6368 30.0294 43.7587 29.6204 44.0046 29.3175C44.2483 29.0168 44.6604 28.8642 45.2365 28.8642H52.1912C52.7673 28.8642 53.1772 29.0146 53.4231 29.3175C53.6668 29.6182 53.7909 30.0294 53.7909 30.5468V42.8754H67.5276V39.9878H53.7909H53.7843Z" fill="white"/>
<path d="M100.066 28.7581V36.5387C99.6913 36.5387 99.3966 36.6669 99.1795 36.9256C98.9646 37.1843 98.7984 37.7017 98.6832 38.4777C98.568 39.2538 98.4948 40.4035 98.4683 41.9269C98.4395 43.4503 98.4239 45.4756 98.4239 48.005C98.4239 50.5344 98.4372 52.7542 98.4683 54.3196C98.4971 55.8872 98.568 57.0502 98.6832 57.8108C98.7984 58.5736 98.9646 59.0689 99.1795 59.2988C99.3944 59.5288 99.6758 59.6437 100.021 59.6437C100.367 59.6437 100.64 59.5288 100.843 59.2988C101.045 59.0689 101.202 58.5736 101.318 57.8108C101.433 57.0502 101.512 55.8916 101.555 54.3395C101.597 52.7874 101.619 50.7046 101.619 48.089C101.619 45.4734 101.603 43.5763 101.575 42.0529C101.546 40.5295 101.473 39.3732 101.36 38.5816C101.244 37.7923 101.085 37.2528 100.883 36.9654C100.682 36.678 100.409 36.5342 100.063 36.5342V28.7581C100.063 28.6011 100.063 28.5348 100.063 28.5635C102.339 28.5635 104.145 28.8952 105.485 29.5541C106.823 30.2152 107.818 31.3008 108.465 32.8087C109.112 34.3166 109.537 36.322 109.739 38.8226C109.941 41.3233 110.043 44.4121 110.043 48.0912C110.043 51.7703 109.949 54.9033 109.761 57.4018C109.573 59.9024 109.156 61.9056 108.509 63.4157C107.862 64.9258 106.861 66.0026 105.507 66.6482C104.153 67.2938 102.326 67.6188 100.021 67.6188C97.7172 67.6188 95.845 67.2452 94.4913 66.4979C93.1375 65.7505 92.1361 64.5942 91.4891 63.0266C90.8422 61.4612 90.4301 59.4425 90.2573 56.9706C90.0845 54.4987 89.998 51.5382 89.998 48.0912C89.998 44.6442 90.0845 41.5975 90.2573 39.1255C90.4301 36.6536 90.84 34.6416 91.4891 33.0895C92.1383 31.5374 93.1375 30.3943 94.4913 29.6624C95.845 28.9306 97.7017 28.5635 100.063 28.5635C100.063 28.5348 100.063 28.5989 100.063 28.7581H100.066ZM108.08 60.6166C107.834 60.3734 107.712 60.0638 107.712 59.6902V54.3019C107.712 53.8995 107.834 53.5833 108.08 53.3534C108.323 53.1235 108.633 53.0085 109.008 53.0085H111.988V41.8009H109.008C108.633 41.8009 108.323 41.6793 108.08 41.4338C107.834 41.1906 107.712 40.8811 107.712 40.5074V35.1192C107.712 34.7168 107.834 34.4006 108.08 34.1707C108.323 33.9407 108.633 33.8258 109.008 33.8258H111.988V30.0737C111.988 29.0964 112.391 28.6078 113.198 28.6078H118.597C119.403 28.6078 119.807 29.0964 119.807 30.0737V68.1827C119.807 69.1599 119.403 69.6485 118.597 69.6485H113.198C112.391 69.6485 111.988 69.1599 111.988 68.1827V60.9836H109.008C108.633 60.9836 108.323 60.862 108.08 60.6166ZM121.535 30.0737C121.535 29.0964 121.938 28.6078 122.745 28.6078H128.662C129.469 28.6078 129.872 29.0964 129.872 30.0737V68.1827C129.872 69.1599 129.469 69.6485 128.662 69.6485H122.745C121.938 69.6485 121.535 69.1599 121.535 68.1827V30.0737Z" fill="white"/>
<path d="M133.091 53.4595C132.787 53.2163 132.637 52.8051 132.637 52.2302V48.5223C132.637 47.9475 132.787 47.5384 133.091 47.293C133.392 47.0498 133.804 46.926 134.323 46.926H169.314C169.832 46.926 170.242 47.0476 170.546 47.293C170.849 47.5384 171 47.9475 171 48.5223V52.2302C171 52.8051 170.849 53.2141 170.546 53.4595C170.244 53.7049 169.832 53.8265 169.314 53.8265H134.323C133.804 53.8265 133.394 53.7049 133.091 53.4595ZM168.6 30.3102C168.902 30.5557 169.054 30.9647 169.054 31.5396V34.8163C169.054 35.3911 168.904 35.8002 168.6 36.0456C168.297 36.291 167.887 36.4126 167.368 36.4126H159.031C159.895 37.1025 160.91 37.6066 162.078 37.9205C163.243 38.2367 164.388 38.4534 165.512 38.5661C166.635 38.6811 167.528 38.7673 168.19 38.8248C168.939 38.8823 169.393 39.0769 169.551 39.4063C169.708 39.738 169.788 40.2753 169.788 41.0226V44.1268C169.788 44.673 169.464 44.9891 168.815 45.0754C168.168 45.1616 167.468 45.1903 166.719 45.1616C165.653 45.1041 164.408 44.9604 162.981 44.7304C161.557 44.5005 160.123 44.1711 158.683 43.7399C157.243 43.3088 155.918 42.7626 154.708 42.1016C153.499 41.4405 152.564 40.6644 151.901 39.7734C151.239 40.6644 150.304 41.4405 149.094 42.1016C147.884 42.7626 146.553 43.3088 145.097 43.7399C143.644 44.1711 142.21 44.5027 140.799 44.7304C139.388 44.9604 138.136 45.1041 137.041 45.1616C136.292 45.1903 135.595 45.1616 134.945 45.0754C134.298 44.9891 133.973 44.673 133.973 44.1268V41.0226C133.973 40.2753 134.059 39.7358 134.232 39.4063C134.405 39.0769 134.85 38.8823 135.57 38.8248C136.261 38.7673 137.161 38.6811 138.271 38.5661C139.379 38.4512 140.518 38.2367 141.683 37.9205C142.848 37.6044 143.865 37.1025 144.729 36.4126H136.264C135.745 36.4126 135.335 36.291 135.032 36.0456C134.73 35.8024 134.578 35.3911 134.578 34.8163V31.5396C134.578 30.9647 134.728 30.5557 135.032 30.3102C135.335 30.067 135.745 29.9432 136.264 29.9432H146.63V28.3911C146.63 27.8737 146.752 27.4647 146.998 27.1618C147.242 26.8611 147.654 26.7085 148.23 26.7085H155.53C156.106 26.7085 156.516 26.8588 156.762 27.1618C157.006 27.4625 157.13 27.8737 157.13 28.3911V29.9432H167.368C167.887 29.9432 168.297 30.0648 168.6 30.3102ZM136.093 62.9646C135.575 62.9646 135.165 62.843 134.861 62.5976C134.558 62.3544 134.407 61.9432 134.407 61.3683V57.6604C134.407 57.0856 134.558 56.6765 134.861 56.4311C135.162 56.1879 135.575 56.0641 136.093 56.0641H167.023C168.06 56.0641 168.773 56.2653 169.161 56.6677C169.549 57.0701 169.743 57.6892 169.743 58.5205V67.9615C169.743 68.4789 169.622 68.8879 169.376 69.1909C169.13 69.4916 168.72 69.6441 168.144 69.6441H160.843C160.267 69.6441 159.858 69.4938 159.612 69.1909C159.366 68.8902 159.244 68.4789 159.244 67.9615V62.9602H136.089L136.093 62.9646Z" fill="white"/>
</svg>
